<svg xmlns="http://www.w3.org/2000/svg" viewBox="0 0 100 100">
  <rect width="100" height="100" rx="20" fill="#f8f9fc"/>
  <!-- Code Window -->
  <rect x="20" y="30" width="40" height="40" rx="5" fill="#18216d"/>
  <circle cx="30" cy="40" r="2" fill="white"/>
  <circle cx="38" cy="40" r="2" fill="white"/>
  <circle cx="46" cy="40" r="2" fill="white"/>
  <!-- Code Lines -->
  <line x1="25" y1="50" x2="55" y2="50" stroke="white" stroke-width="2" opacity="0.5"/>
  <line x1="25" y1="58" x2="45" y2="58" stroke="white" stroke-width="2" opacity="0.5"/>
  <!-- Cloud -->
  <path d="M60 45 q10 0 10 10 q10 0 10 10 q0 10 -10 10 h-20 q-10 0 -10 -10 q0 -10 10 -10 q0 -10 10 -10" fill="#18216d" opacity="0.7"/>
  <!-- Upload Arrow -->
  <path d="M70 55 l-5 5 l5 -15 l5 15 l-5 -5" fill="white"/>
</svg> 