<svg width="512" height="512" viewBox="0 0 512 512" fill="none" xmlns="http://www.w3.org/2000/svg">
  <rect width="512" height="512" rx="128" fill="#6200EA"/>
  <path d="M256 128C185.307 128 128 185.307 128 256C128 326.693 185.307 384 256 384C326.693 384 384 326.693 384 256C384 185.307 326.693 128 256 128ZM256 176C282.51 176 304 197.49 304 224C304 250.51 282.51 272 256 272C229.49 272 208 250.51 208 224C208 197.49 229.49 176 256 176ZM256 352C217.6 352 183.68 332.16 164 302.08C164.32 279.04 210.67 267 256 267C301.33 267 347.68 279.04 348 302.08C328.32 332.16 294.4 352 256 352Z" fill="white"/>
</svg> 