<svg xmlns="http://www.w3.org/2000/svg" viewBox="0 0 100 100">
  <rect width="100" height="100" rx="20" fill="#f8f9fc"/>
  <path d="M30 35 h40 a10 10 0 0 1 10 10 v5 a10 10 0 0 1 -10 10 h-40 a10 10 0 0 1 -10 -10 v-5 a10 10 0 0 1 10 -10" fill="#18216d"/>
  <path d="M70 65 h-40 a10 10 0 0 0 -10 10 v5 a10 10 0 0 0 10 10 h40 a10 10 0 0 0 10 -10 v-5 a10 10 0 0 0 -10 -10" fill="#18216d" opacity="0.7"/>
  <circle cx="40" cy="45" r="3" fill="white"/>
  <circle cx="50" cy="45" r="3" fill="white"/>
  <circle cx="60" cy="45" r="3" fill="white"/>
  <path d="M45 80 l5 -5 l5 5" fill="none" stroke="white" stroke-width="2"/>
</svg> 