<svg xmlns="http://www.w3.org/2000/svg" viewBox="0 0 100 100">
  <rect width="100" height="100" rx="20" fill="#f8f9fc"/>
  <!-- Trophy -->
  <path d="M35 30 h30 v5 q20 0 20 20 q0 15 -15 15 q-5 10 -20 10 q-15 0 -20 -10 q-15 0 -15 -15 q0 -20 20 -20" fill="#18216d"/>
  <rect x="45" y="80" width="10" height="5" fill="#18216d"/>
  <rect x="35" y="85" width="30" height="5" fill="#18216d"/>
  <!-- Stars -->
  <path d="M20 40 l2 -6 l2 6 l6 2 l-6 2 l-2 6 l-2 -6 l-6 -2 l6 -2" fill="#18216d" opacity="0.7"/>
  <path d="M75 45 l2 -6 l2 6 l6 2 l-6 2 l-2 6 l-2 -6 l-6 -2 l6 -2" fill="#18216d" opacity="0.7"/>
  <path d="M85 65 l1.5 -4.5 l1.5 4.5 l4.5 1.5 l-4.5 1.5 l-1.5 4.5 l-1.5 -4.5 l-4.5 -1.5 l4.5 -1.5" fill="#18216d" opacity="0.5"/>
</svg> 